999
dxfrw 0.6.3
  0
SECTION
  2
HEADER
  9
$ACADVER
  1
AC1021
  9
$DWGCODEPAGE
  3
ANSI_1252
  9
$INSBASE
 10
0
 20
0
 30
0
  9
$EXTMIN
 10
-22.91618924028614
 20
-30.00000000000004
 30
0
  9
$EXTMAX
 10
148.8204441330826
 20
95.50000000000006
 30
0
  9
$LIMMIN
 10
0
 20
0
  9
$LIMMAX
 10
12
 20
9
  9
$ORTHOMODE
 70
    0
  9
$REGENMODE
 70
    1
  9
$FILLMODE
 70
    1
  9
$QTEXTMODE
 70
    0
  9
$MIRRTEXT
 70
    0
  9
$LTSCALE
 40
1
  9
$ATTMODE
 70
    1
  9
$TEXTSIZE
 40
0.2
  9
$TRACEWID
 40
0.05
  9
$TEXTSTYLE
  7
Standard
  9
$CLAYER
  8
0
  9
$CELTYPE
  6
ByLayer
  9
$CECOLOR
 62
  256
  9
$CELTSCALE
 40
1
  9
$DISPSILH
 70
    0
  9
$DIMSCALE
 40
1
  9
$DIMASZ
 40
2.5
  9
$DIMEXO
 40
0.625
  9
$DIMDLI
 40
5
  9
$DIMRND
 40
0
  9
$DIMDLE
 40
0
  9
$DIMEXE
 40
1.25
  9
$DIMTP
 40
0
  9
$DIMTM
 40
0
  9
$DIMTXT
 40
2.5
  9
$DIMCEN
 40
0.09
  9
$DIMTSZ
 40
0
  9
$DIMTOL
 70
    0
  9
$DIMLIM
 70
    0
  9
$DIMTIH
 70
    1
  9
$DIMTOH
 70
    1
  9
$DIMSE1
 70
    0
  9
$DIMSE2
 70
    0
  9
$DIMTAD
 70
    0
  9
$DIMZIN
 70
    8
  9
$DIMBLK
  1

  9
$DIMASO
 70
    1
  9
$DIMSHO
 70
    1
  9
$DIMPOST
  1

  9
$DIMAPOST
  1

  9
$DIMALT
 70
    0
  9
$DIMALTD
 70
    2
  9
$DIMALTF
 40
25.4
  9
$DIMLFAC
 40
1
  9
$DIMTOFL
 70
    0
  9
$DIMTVP
 40
0
  9
$DIMTIX
 70
    0
  9
$DIMSOXD
 70
    0
  9
$DIMSAH
 70
    0
  9
$DIMBLK1
  1

  9
$DIMBLK2
  1

  9
$DIMSTYLE
  2
Standard
  9
$DIMCLRD
 70
    0
  9
$DIMCLRE
 70
    0
  9
$DIMCLRT
 70
    0
  9
$DIMTFAC
 40
1
  9
$DIMGAP
 40
0.625
  9
$DIMJUST
 70
    0
  9
$DIMSD1
 70
    0
  9
$DIMSD2
 70
    0
  9
$DIMTOLJ
 70
    1
  9
$DIMTZIN
 70
    0
  9
$DIMALTZ
 70
    0
  9
$DIMALTTZ
 70
    0
  9
$DIMUPT
 70
    0
  9
$DIMDEC
 70
    4
  9
$DIMTDEC
 70
    4
  9
$DIMALTU
 70
    2
  9
$DIMALTTD
 70
    2
  9
$DIMTXSTY
  7
Standard
  9
$DIMAUNIT
 70
    0
  9
$DIMADEC
 70
    0
  9
$DIMALTRND
 40
0
  9
$DIMAZIN
 70
    2
  9
$DIMDSEP
 70
   46
  9
$DIMATFIT
 70
    3
  9
$DIMFRAC
 70
    0
  9
$DIMLDRBLK
  1

  9
$DIMLUNIT
 70
    2
  9
$DIMLWD
 70
   -2
  9
$DIMLWE
 70
   -2
  9
$DIMTMOVE
 70
    0
  9
$DIMFXL
 40
1
  9
$DIMFXLON
 70
    0
  9
$DIMJOGANG
 40
0.7853981633974483
  9
$DIMTFILL
 70
    0
  9
$DIMTFILLCLR
 70
    0
  9
$DIMARCSYM
 70
    0
  9
$DIMLTYPE
  6

  9
$DIMLTEX1
  6

  9
$DIMLTEX2
  6

  9
$LUNITS
 70
    2
  9
$LUPREC
 70
    4
  9
$SKETCHINC
 40
0.1
  9
$FILLETRAD
 40
0.5
  9
$AUNITS
 70
    0
  9
$AUPREC
 70
    0
  9
$MENU
  1
.
  9
$ELEVATION
 40
0
  9
$PELEVATION
 40
0
  9
$THICKNESS
 40
0
  9
$LIMCHECK
 70
    0
  9
$CHAMFERA
 40
0
  9
$CHAMFERB
 40
0
  9
$CHAMFERC
 40
0
  9
$CHAMFERD
 40
0
  9
$SKPOLY
 70
    0
  9
$USRTIMER
 70
    1
  9
$ANGBASE
 50
0
  9
$ANGDIR
 70
    0
  9
$PDMODE
 70
    0
  9
$PDSIZE
 40
0
  9
$PLINEWID
 40
0
  9
$SPLFRAME
 70
    0
  9
$SPLINETYPE
 70
    6
  9
$SPLINESEGS
 70
    8
  9
$HANDSEED
  5
20000
  9
$SURFTAB1
 70
    6
  9
$SURFTAB2
 70
    6
  9
$SURFTYPE
 70
    6
  9
$SURFU
 70
    6
  9
$SURFV
 70
    6
  9
$UCSBASE
  2

  9
$UCSNAME
  2

  9
$UCSORG
 10
0
 20
0
 30
0
  9
$UCSXDIR
 10
1
 20
0
 30
0
  9
$UCSYDIR
 10
0
 20
1
 30
0
  9
$UCSORTHOREF
  2

  9
$UCSORTHOVIEW
 70
    0
  9
$UCSORGTOP
 10
0
 20
0
 30
0
  9
$UCSORGBOTTOM
 10
0
 20
0
 30
0
  9
$UCSORGLEFT
 10
0
 20
0
 30
0
  9
$UCSORGRIGHT
 10
0
 20
0
 30
0
  9
$UCSORGFRONT
 10
0
 20
0
 30
0
  9
$UCSORGBACK
 10
0
 20
0
 30
0
  9
$PUCSBASE
  2

  9
$PUCSNAME
  2

  9
$PUCSORG
 10
0
 20
0
 30
0
  9
$PUCSXDIR
 10
1
 20
0
 30
0
  9
$PUCSYDIR
 10
0
 20
1
 30
0
  9
$PUCSORTHOREF
  2

  9
$PUCSORTHOVIEW
 70
    0
  9
$PUCSORGTOP
 10
0
 20
0
 30
0
  9
$PUCSORGBOTTOM
 10
0
 20
0
 30
0
  9
$PUCSORGLEFT
 10
0
 20
0
 30
0
  9
$PUCSORGRIGHT
 10
0
 20
0
 30
0
  9
$PUCSORGFRONT
 10
0
 20
0
 30
0
  9
$PUCSORGBACK
 10
0
 20
0
 30
0
  9
$USERI1
 70
    0
  9
$USERI2
 70
    0
  9
$USERI3
 70
    0
  9
$USERI4
 70
    0
  9
$USERI5
 70
    0
  9
$USERR1
 40
0
  9
$USERR2
 40
0
  9
$USERR3
 40
0
  9
$USERR4
 40
0
  9
$USERR5
 40
0
  9
$WORLDVIEW
 70
    1
  9
$SHADEDGE
 70
    3
  9
$SHADEDIF
 70
   70
  9
$TILEMODE
 70
    1
  9
$MAXACTVP
 70
   64
  9
$PINSBASE
 10
0
 20
0
 30
0
  9
$PLIMCHECK
 70
    0
  9
$PEXTMIN
 10
0
 20
0
 30
0
  9
$PEXTMAX
 10
0
 20
0
 30
0
  9
$GRIDMODE
 70
    1
  9
$SNAPSTYLE
 70
    0
  9
$PLIMMIN
 10
-20
 20
-7.5
  9
$PLIMMAX
 10
277
 20
202.5
  9
$UNITMODE
 70
    0
  9
$VISRETAIN
 70
    1
  9
$PLINEGEN
 70
    0
  9
$PSLTSCALE
 70
    1
  9
$TREEDEPTH
 70
 3020
  9
$CMLSTYLE
  2
Standard
  9
$CMLJUST
 70
    0
  9
$CMLSCALE
 40
1
  9
$PROXYGRAPHICS
 70
    1
  9
$MEASUREMENT
 70
    1
  9
$CELWEIGHT
370
   -1
  9
$ENDCAPS
280
    0
  9
$JOINSTYLE
280
    0
  9
$LWDISPLAY
290
    0
  9
$INSUNITS
 70
    4
  9
$HYPERLINKBASE
  1

  9
$STYLESHEET
  1

  9
$XEDIT
290
    1
  9
$CEPSNTYPE
380
    0
  9
$PSTYLEMODE
290
    1
  9
$EXTNAMES
290
    1
  9
$PSVPSCALE
 40
0
  9
$OLESTARTUP
290
    0
  9
$SORTENTS
280
  127
  9
$INDEXCTL
280
    0
  9
$HIDETEXT
280
    1
  9
$XCLIPFRAME
290
    2
  9
$HALOGAP
280
    0
  9
$OBSCOLOR
 70
  257
  9
$OBSLTYPE
280
    0
  9
$INTERSECTIONDISPLAY
280
    0
  9
$INTERSECTIONCOLOR
 70
  257
  9
$DIMASSOC
280
    2
  9
$PROJECTNAME
  1

  9
$CAMERADISPLAY
290
    0
  9
$LENSLENGTH
 40
50
  9
$CAMERAHEIGHT
 40
0
  9
$STEPSPERSEC
 40
2
  9
$STEPSIZE
 40
6
  9
$3DDWFPREC
 40
2
  9
$PSOLWIDTH
 40
0.25
  9
$PSOLHEIGHT
 40
4
  9
$LOFTANG1
 40
1.570796326794897
  9
$LOFTANG2
 40
1.570796326794897
  9
$LOFTMAG1
 40
0
  9
$LOFTMAG2
 40
0
  9
$LOFTPARAM
 70
    7
  9
$LOFTNORMALS
280
    1
  9
$LATITUDE
 40
37.795
  9
$LONGITUDE
 40
-122.394
  9
$NORTHDIRECTION
 40
0
  9
$TIMEZONE
 70
-8000
  9
$LIGHTGLYPHDISPLAY
280
    1
  9
$TILEMODELIGHTSYNCH
280
    1
  9
$SOLIDHIST
280
    0
  9
$SHOWHIST
280
    1
  9
$DWFFRAME
280
    2
  9
$DGNFRAME
280
    2
  9
$REALWORLDSCALE
290
    1
  9
$INTERFERECOLOR
 62
  256
  9
$CSHADOW
280
    0
  9
$SHADOWPLANELOCATION
 40
0
  0
ENDSEC
  0
SECTION
  2
CLASSES
  0
ENDSEC
  0
SECTION
  2
TABLES
  0
TABLE
  2
VPORT
  5
8
330
0
100
AcDbSymbolTable
 70
    1
  0
VPORT
  5
31
330
2
100
AcDbSymbolTableRecord
100
AcDbViewportTableRecord
  2
*ACTIVE
 70
    0
 10
0
 20
0
 11
1
 21
1
 12
104.7403475611756
 22
54.3437469513233
 13
0
 23
0
 14
10
 24
10
 15
10
 25
10
 16
0
 26
0
 36
1
 17
0
 27
0
 37
0
 40
162.6788170734814
 41
1.722703639514731
 42
50
 43
0
 44
0
 50
0
 51
0
 71
    0
 72
  100
 73
    1
 74
    3
 75
    0
 76
    1
 77
    0
 78
    0
281
    0
 65
    1
110
0
120
0
130
0
111
1
121
0
131
0
112
0
122
1
132
0
 79
    0
146
0
348
10020
 60
    7
 61
    5
292
1
282
    1
141
0
142
0
 63
  250
421
3358443
  0
ENDTAB
  0
TABLE
  2
LTYPE
  5
5
330
0
100
AcDbSymbolTable
 70
    4
  0
LTYPE
  5
14
330
5
100
AcDbSymbolTableRecord
100
AcDbLinetypeTableRecord
  2
ByBlock
 70
    0
  3

 72
   65
 73
    0
 40
0
  0
LTYPE
  5
15
330
5
100
AcDbSymbolTableRecord
100
AcDbLinetypeTableRecord
  2
ByLayer
 70
    0
  3

 72
   65
 73
    0
 40
0
  0
LTYPE
  5
16
330
5
100
AcDbSymbolTableRecord
100
AcDbLinetypeTableRecord
  2
Continuous
 70
    0
  3
Solid line
 72
   65
 73
    0
 40
0
  0
LTYPE
  5
32
330
5
100
AcDbSymbolTableRecord
100
AcDbLinetypeTableRecord
  2
DOT
 70
    0
  3
Dot . . . . . . . . . . . . . . . . . . . . . .
 72
   65
 73
    2
 40
6.35
 49
0
 74
    0
 49
-6.35
 74
    0
  0
LTYPE
  5
33
330
5
100
AcDbSymbolTableRecord
100
AcDbLinetypeTableRecord
  2
DOTTINY
 70
    0
  3
Dot (.15x) .....................................
 72
   65
 73
    2
 40
0.9525
 49
0
 74
    0
 49
-0.9525
 74
    0
  0
LTYPE
  5
34
330
5
100
AcDbSymbolTableRecord
100
AcDbLinetypeTableRecord
  2
DOT2
 70
    0
  3
Dot (.5x) .....................................
 72
   65
 73
    2
 40
3.175
 49
0
 74
    0
 49
-3.175
 74
    0
  0
LTYPE
  5
35
330
5
100
AcDbSymbolTableRecord
100
AcDbLinetypeTableRecord
  2
DOTX2
 70
    0
  3
Dot (2x) .  .  .  .  .  .  .  .  .  .  .  .  .
 72
   65
 73
    2
 40
12.7
 49
0
 74
    0
 49
-12.7
 74
    0
  0
LTYPE
  5
36
330
5
100
AcDbSymbolTableRecord
100
AcDbLinetypeTableRecord
  2
DASHED
 70
    0
  3
Dashed _ _ _ _ _ _ _ _ _ _ _ _ _ _ _ _ _
 72
   65
 73
    2
 40
19.05
 49
12.7
 74
    0
 49
-6.35
 74
    0
  0
LTYPE
  5
37
330
5
100
AcDbSymbolTableRecord
100
AcDbLinetypeTableRecord
  2
DASHEDTINY
 70
    0
  3
Dashed (.15x) _ _ _ _ _ _ _ _ _ _ _ _ _ _ _ _ _
 72
   65
 73
    2
 40
2.8575
 49
1.905
 74
    0
 49
-0.9525
 74
    0
  0
LTYPE
  5
38
330
5
100
AcDbSymbolTableRecord
100
AcDbLinetypeTableRecord
  2
DASHED2
 70
    0
  3
Dashed (.5x) _ _ _ _ _ _ _ _ _ _ _ _ _ _ _ _ _
 72
   65
 73
    2
 40
9.524999999999999
 49
6.35
 74
    0
 49
-3.175
 74
    0
  0
LTYPE
  5
39
330
5
100
AcDbSymbolTableRecord
100
AcDbLinetypeTableRecord
  2
DASHEDX2
 70
    0
  3
Dashed (2x) ____  ____  ____  ____  ____  ___
 72
   65
 73
    2
 40
38.09999999999999
 49
25.4
 74
    0
 49
-12.7
 74
    0
  0
LTYPE
  5
3A
330
5
100
AcDbSymbolTableRecord
100
AcDbLinetypeTableRecord
  2
DASHDOT
 70
    0
  3
Dash dot __ . __ . __ . __ . __ . __ . __ . __
 72
   65
 73
    4
 40
25.4
 49
12.7
 74
    0
 49
-6.35
 74
    0
 49
0
 74
    0
 49
-6.35
 74
    0
  0
LTYPE
  5
3B
330
5
100
AcDbSymbolTableRecord
100
AcDbLinetypeTableRecord
  2
DASHDOTTINY
 70
    0
  3
Dash dot (.15x) _._._._._._._._._._._._._._._.
 72
   65
 73
    4
 40
3.81
 49
1.905
 74
    0
 49
-0.9525
 74
    0
 49
0
 74
    0
 49
-0.9525
 74
    0
  0
LTYPE
  5
3C
330
5
100
AcDbSymbolTableRecord
100
AcDbLinetypeTableRecord
  2
DASHDOT2
 70
    0
  3
Dash dot (.5x) _._._._._._._._._._._._._._._.
 72
   65
 73
    4
 40
12.7
 49
6.35
 74
    0
 49
-3.175
 74
    0
 49
0
 74
    0
 49
-3.175
 74
    0
  0
LTYPE
  5
3D
330
5
100
AcDbSymbolTableRecord
100
AcDbLinetypeTableRecord
  2
DASHDOTX2
 70
    0
  3
Dash dot (2x) ____  .  ____  .  ____  .  ___
 72
   65
 73
    4
 40
50.8
 49
25.4
 74
    0
 49
-12.7
 74
    0
 49
0
 74
    0
 49
-12.7
 74
    0
  0
LTYPE
  5
3E
330
5
100
AcDbSymbolTableRecord
100
AcDbLinetypeTableRecord
  2
DIVIDE
 70
    0
  3
Divide ____ . . ____ . . ____ . . ____ . . ____
 72
   65
 73
    6
 40
31.75
 49
12.7
 74
    0
 49
-6.35
 74
    0
 49
0
 74
    0
 49
-6.35
 74
    0
 49
0
 74
    0
 49
-6.35
 74
    0
  0
LTYPE
  5
3F
330
5
100
AcDbSymbolTableRecord
100
AcDbLinetypeTableRecord
  2
DIVIDETINY
 70
    0
  3
Divide (.15x) __..__..__..__..__..__..__..__.._
 72
   65
 73
    6
 40
4.7625
 49
1.905
 74
    0
 49
-0.9525
 74
    0
 49
0
 74
    0
 49
-0.9525
 74
    0
 49
0
 74
    0
 49
-0.9525
 74
    0
  0
LTYPE
  5
40
330
5
100
AcDbSymbolTableRecord
100
AcDbLinetypeTableRecord
  2
DIVIDE2
 70
    0
  3
Divide (.5x) __..__..__..__..__..__..__..__.._
 72
   65
 73
    6
 40
15.875
 49
6.35
 74
    0
 49
-3.175
 74
    0
 49
0
 74
    0
 49
-3.175
 74
    0
 49
0
 74
    0
 49
-3.175
 74
    0
  0
LTYPE
  5
41
330
5
100
AcDbSymbolTableRecord
100
AcDbLinetypeTableRecord
  2
DIVIDEX2
 70
    0
  3
Divide (2x) ________  .  .  ________  .  .  _
 72
   65
 73
    6
 40
63.5
 49
25.4
 74
    0
 49
-12.7
 74
    0
 49
0
 74
    0
 49
-12.7
 74
    0
 49
0
 74
    0
 49
-12.7
 74
    0
  0
LTYPE
  5
42
330
5
100
AcDbSymbolTableRecord
100
AcDbLinetypeTableRecord
  2
BORDER
 70
    0
  3
Border __ __ . __ __ . __ __ . __ __ . __ __ .
 72
   65
 73
    6
 40
44.45
 49
12.7
 74
    0
 49
-6.35
 74
    0
 49
12.7
 74
    0
 49
-6.35
 74
    0
 49
0
 74
    0
 49
-6.35
 74
    0
  0
LTYPE
  5
43
330
5
100
AcDbSymbolTableRecord
100
AcDbLinetypeTableRecord
  2
BORDERTINY
 70
    0
  3
Border (.15x) __.__.__.__.__.__.__.__.__.__.__.
 72
   65
 73
    6
 40
6.6675
 49
1.905
 74
    0
 49
-0.9525
 74
    0
 49
1.905
 74
    0
 49
-0.9525
 74
    0
 49
0
 74
    0
 49
-0.9525
 74
    0
  0
LTYPE
  5
44
330
5
100
AcDbSymbolTableRecord
100
AcDbLinetypeTableRecord
  2
BORDER2
 70
    0
  3
Border (.5x) __.__.__.__.__.__.__.__.__.__.__.
 72
   65
 73
    6
 40
22.225
 49
6.35
 74
    0
 49
-3.175
 74
    0
 49
6.35
 74
    0
 49
-3.175
 74
    0
 49
0
 74
    0
 49
-3.175
 74
    0
  0
LTYPE
  5
45
330
5
100
AcDbSymbolTableRecord
100
AcDbLinetypeTableRecord
  2
BORDERX2
 70
    0
  3
Border (2x) ____  ____  .  ____  ____  .  ___
 72
   65
 73
    6
 40
88.89999999999999
 49
25.4
 74
    0
 49
-12.7
 74
    0
 49
25.4
 74
    0
 49
-12.7
 74
    0
 49
0
 74
    0
 49
-12.7
 74
    0
  0
LTYPE
  5
46
330
5
100
AcDbSymbolTableRecord
100
AcDbLinetypeTableRecord
  2
CENTER
 70
    0
  3
Center ____ _ ____ _ ____ _ ____ _ ____ _ ____
 72
   65
 73
    4
 40
50.8
 49
31.75
 74
    0
 49
-6.35
 74
    0
 49
6.35
 74
    0
 49
-6.35
 74
    0
  0
LTYPE
  5
47
330
5
100
AcDbSymbolTableRecord
100
AcDbLinetypeTableRecord
  2
CENTERTINY
 70
    0
  3
Center (.15x) ___ _ ___ _ ___ _ ___ _ ___ _ ___
 72
   65
 73
    4
 40
7.619999999999999
 49
4.7625
 74
    0
 49
-0.9525
 74
    0
 49
0.9525
 74
    0
 49
-0.9525
 74
    0
  0
LTYPE
  5
48
330
5
100
AcDbSymbolTableRecord
100
AcDbLinetypeTableRecord
  2
CENTER2
 70
    0
  3
Center (.5x) ___ _ ___ _ ___ _ ___ _ ___ _ ___
 72
   65
 73
    4
 40
28.575
 49
19.05
 74
    0
 49
-3.175
 74
    0
 49
3.175
 74
    0
 49
-3.175
 74
    0
  0
LTYPE
  5
49
330
5
100
AcDbSymbolTableRecord
100
AcDbLinetypeTableRecord
  2
CENTERX2
 70
    0
  3
Center (2x) ________  __  ________  __  _____
 72
   65
 73
    4
 40
101.6
 49
63.5
 74
    0
 49
-12.7
 74
    0
 49
12.7
 74
    0
 49
-12.7
 74
    0
  0
ENDTAB
  0
TABLE
  2
LAYER
  5
2
330
0
100
AcDbSymbolTable
 70
    1
  0
LAYER
  5
10
330
2
100
AcDbSymbolTableRecord
100
AcDbLayerTableRecord
  2
0
 70
    0
 62
    7
  6
CONTINUOUS
370
   25
390
F
  0
LAYER
  5
4A
330
2
100
AcDbSymbolTableRecord
100
AcDbLayerTableRecord
  2
BLACK
 70
    0
 62
    7
  6
CONTINUOUS
370
   -3
390
F
  0
LAYER
  5
4B
330
2
100
AcDbSymbolTableRecord
100
AcDbLayerTableRecord
  2
EXT
 70
    0
 62
    3
  6
CONTINUOUS
370
    0
390
F
  0
LAYER
  5
4C
330
2
100
AcDbSymbolTableRecord
100
AcDbLayerTableRecord
  2
INT
 70
    0
 62
    1
  6
CONTINUOUS
370
    0
390
F
  0
ENDTAB
  0
TABLE
  2
STYLE
  5
3
330
0
100
AcDbSymbolTable
 70
    3
  0
STYLE
  5
4D
330
2
100
AcDbSymbolTableRecord
100
AcDbTextStyleTableRecord
  2
Standard
 70
    0
 40
0
 41
1
 50
0
 71
    0
 42
1
  3
txt
  4

  0
ENDTAB
  0
TABLE
  2
VIEW
  5
6
330
0
100
AcDbSymbolTable
 70
    0
  0
ENDTAB
  0
TABLE
  2
UCS
  5
7
330
0
100
AcDbSymbolTable
 70
    0
  0
ENDTAB
  0
TABLE
  2
APPID
  5
9
330
0
100
AcDbSymbolTable
 70
    1
  0
APPID
  5
12
330
9
100
AcDbSymbolTableRecord
100
AcDbRegAppTableRecord
  2
ACAD
 70
    0
  0
APPID
  5
4E
330
9
100
AcDbSymbolTableRecord
100
AcDbRegAppTableRecord
  2
LibreCad
 70
    0
  0
ENDTAB
  0
TABLE
  2
DIMSTYLE
  5
A
330
0
100
AcDbSymbolTable
 70
    1
100
AcDbDimStyleTable
 71
    1
  0
DIMSTYLE
105
4F
330
A
100
AcDbSymbolTableRecord
100
AcDbDimStyleTableRecord
  2
Standard
 70
    0
 40
1
 41
2.5
 42
0.625
 43
0.38
 44
1.25
 45
0
 46
0
 47
0
 48
0
 49
1
140
2.5
141
0.09
142
0
143
25.4
144
1
145
0
146
1
147
0.625
148
0
 71
    0
 72
    0
 73
    1
 74
    1
 75
    0
 76
    0
 77
    0
 78
    8
 79
    2
170
    0
171
    2
172
    0
173
    0
174
    0
175
    0
176
    0
177
    0
178
    0
179
    0
271
    4
272
    4
273
    2
274
    2
275
    0
276
    0
277
    2
278
   46
279
    0
280
    0
281
    0
282
    0
283
    1
284
    0
285
    0
286
    0
288
    0
289
    3
340
Standard
341

371
   -2
372
   -2
  0
ENDTAB
  0
TABLE
  2
BLOCK_RECORD
  5
1
330
0
100
AcDbSymbolTable
 70
    2
  0
BLOCK_RECORD
  5
1F
330
1
100
AcDbSymbolTableRecord
100
AcDbBlockTableRecord
  2
*Model_Space
 70
    0
280
    1
281
    0
  0
BLOCK_RECORD
  5
1E
330
1
100
AcDbSymbolTableRecord
100
AcDbBlockTableRecord
  2
*Paper_Space
 70
    0
280
    1
281
    0
  0
ENDTAB
  0
ENDSEC
  0
SECTION
  2
BLOCKS
  0
BLOCK
  5
20
330
1F
100
AcDbEntity
  8
0
100
AcDbBlockBegin
  2
*Model_Space
 70
    0
 10
0
 20
0
 30
0
  3
*Model_Space
  1

  0
ENDBLK
  5
21
330
1F
100
AcDbEntity
  8
0
100
AcDbBlockEnd
  0
BLOCK
  5
1C
330
1B
100
AcDbEntity
  8
0
100
AcDbBlockBegin
  2
*Paper_Space
 70
    0
 10
0
 20
0
 30
0
  3
*Paper_Space
  1

  0
ENDBLK
  5
1D
330
1F
100
AcDbEntity
  8
0
100
AcDbBlockEnd
  0
ENDSEC
  0
SECTION
  2
ENTITIES
  0
CIRCLE
  5
50
100
AcDbEntity
  8
INT
  6
ByLayer
 62
  256
370
   -1
100
AcDbCircle
 10
25.70212744639808
 20
-22.55477841167384
 40
3.5
  0
CIRCLE
  5
51
100
AcDbEntity
  8
INT
  6
ByLayer
 62
  256
370
   -1
100
AcDbCircle
 10
23.59004475971389
 20
0.5052210883260386
 40
1.5875
  0
CIRCLE
  5
52
100
AcDbEntity
  8
INT
  6
ByLayer
 62
  256
370
   -1
100
AcDbCircle
 10
27.60524475971389
 20
56.50522108832595
 40
1.5875
  0
LWPOLYLINE
  5
53
100
AcDbEntity
  8
INT
  6
ByLayer
 62
  256
370
   -1
100
AcDbPolyline
 90
    4
 70
    1
 43
0
 10
3.056310759713909
 20
-10.65699999999989
 10
3.056310759713909
 20
-20.61599999999989
 10
5.106310759713921
 20
-20.61599999999989
 10
5.106310759713921
 20
-10.65699999999989
  0
LWPOLYLINE
  5
54
100
AcDbEntity
  8
INT
  6
ByLayer
 62
  256
370
   -1
100
AcDbPolyline
 90
    4
 70
    1
 43
0
 10
5.106310759713928
 20
60.37862108832607
 10
3.056310759713917
 20
60.37862108832607
 10
3.056310759713917
 20
68.61500000000007
 10
5.106310759713928
 20
68.61500000000007
  0
LWPOLYLINE
  5
55
100
AcDbEntity
  8
INT
  6
ByLayer
 62
  256
370
   -1
100
AcDbPolyline
 90
    4
 70
    1
 43
0
 10
33.6914447597139
 20
-0.7979999999999166
 10
35.74144475971389
 20
-0.7979999999999166
 10
35.74144475971389
 20
9.161000000000058
 10
33.6914447597139
 20
9.161000000000058
  0
LWPOLYLINE
  5
56
100
AcDbEntity
  8
INT
  6
ByLayer
 62
  256
370
   -1
100
AcDbPolyline
 90
    4
 70
    1
 43
0
 10
33.6914447597139
 20
19.02000000000001
 10
35.74144475971389
 20
19.02000000000001
 10
35.74144475971389
 20
28.97899999999996
 10
33.6914447597139
 20
28.97899999999996
  0
LWPOLYLINE
  5
57
100
AcDbEntity
  8
INT
  6
ByLayer
 62
  256
370
   -1
100
AcDbPolyline
 90
    4
 70
    1
 43
0
 10
33.6914447597139
 20
38.83799999999997
 10
35.74144475971389
 20
38.83799999999997
 10
35.74144475971389
 20
48.79700000000007
 10
33.6914447597139
 20
48.79700000000007
  0
LWPOLYLINE
  5
58
100
AcDbEntity
  8
INT
  6
ByLayer
 62
  256
370
   -1
100
AcDbPolyline
 90
    4
 70
    1
 43
0
 10
33.6914447597139
 20
68.61500000000007
 10
35.74144475971389
 20
68.61500000000007
 10
35.74144475971389
 20
58.65600000000006
 10
33.6914447597139
 20
58.65600000000006
  0
LWPOLYLINE
  5
59
100
AcDbEntity
  8
EXT
  6
ByLayer
 62
  256
370
   -1
100
AcDbPolyline
 90
   60
 70
    1
 43
0
 10
45.20212744639821
 20
-30.00000000000003
 10
33.60212744639824
 20
-30.00000000000003
 10
33.60212744639824
 20
-28.00000000000003
 10
27.85212744639824
 20
-28.00000000000003
 10
27.85212744639824
 20
-30.00000000000003
 10
19.05212744639825
 20
-30.00000000000003
 10
19.05212744639825
 20
-28.00000000000003
 10
10.30212744639825
 20
-28.00000000000002
 10
10.30212744639825
 20
-30.00000000000002
 10
1.502127446398248
 20
-30.00000000000002
 10
1.502127446398248
 20
-28.00000000000002
 10
-7.247872553601752
 20
-28.00000000000002
 10
-7.247872553601766
 20
-30.00000000000002
 10
-16.04787255360176
 20
-30.00000000000002
 10
-16.04787255360176
 20
-28.00000000000002
 10
-22.91618924028614
 20
-28.00000000000015
 10
-22.91618924028614
 20
-20.6160000000001
 10
-20.91618924028614
 20
-20.6160000000001
 10
-20.91618924028614
 20
-10.65699999999989
 10
-22.91618924028614
 20
-10.65699999999989
 10
-22.91618924028614
 20
-0.7979999999999983
 10
-20.91618924028614
 20
-0.7979999999999983
 10
-20.91618924028614
 20
9.161000000000008
 10
-22.91618924028614
 20
9.161000000000008
 10
-22.91618924028614
 20
19.01999999999999
 10
-20.91618924028614
 20
19.01999999999999
 10
-20.91618924028614
 20
28.97899999999996
 10
-22.91618924028614
 20
28.97899999999996
 10
-22.91618924028614
 20
38.83799999999997
 10
-20.91618924028614
 20
38.83799999999997
 10
-20.91618924028614
 20
48.79700000000007
 10
-22.91618924028614
 20
48.79700000000007
 10
-22.91618924028614
 20
58.65600000000006
 10
-20.91618924028614
 20
58.65600000000006
 10
-20.91618924028614
 20
68.61500000000007
 10
-22.91618924028614
 20
68.61500000000007
 10
-22.91618924028614
 20
76.00000000000006
 10
-16.04787255360178
 20
76.00000000000006
 10
-16.04787255360178
 20
78.00000000000006
 10
-7.247872553601788
 20
78.00000000000006
 10
-7.247872553601773
 20
76.00000000000006
 10
1.502127446398212
 20
76.00000000000006
 10
1.502127446398212
 20
78.00000000000006
 10
10.30212744639821
 20
78.00000000000006
 10
10.30212744639822
 20
76.00000000000006
 10
19.05212744639822
 20
76.00000000000006
 10
19.0521274463982
 20
78.00000000000006
 10
27.85212744639822
 20
78.00000000000006
 10
27.85212744639822
 20
76.00000000000006
 10
36.60212744639821
 20
76.00000000000006
 10
36.60212744639821
 20
78.00000000000006
 10
45.20212744639822
 20
78.00000000000006
 10
45.20212744639821
 20
-19.05477841167384
 10
35.74144475971389
 20
-19.05477841167384
 10
35.74144475971389
 20
-10.6569999999999
 10
33.69144475971388
 20
-10.6569999999999
 10
33.69144475971387
 20
-20.61599999999989
 10
35.74144475971389
 20
-20.61599999999989
 10
35.74144475971389
 20
-26.05477841167384
 10
45.20212744639821
 20
-26.05477841167384
  0
LINE
  5
5A
100
AcDbEntity
  8
EXT
  6
ByLayer
 62
  256
370
   -1
100
AcDbLine
 10
62.70212744639826
 20
48.79700000000016
 11
62.70212744639826
 21
41.99492108832586
  0
LINE
  5
5B
100
AcDbEntity
  8
EXT
  6
ByLayer
 62
  256
370
   -1
100
AcDbLine
 10
60.70212744639826
 20
16.99492108832587
 11
60.70212744639826
 21
9.161000000000087
  0
LWPOLYLINE
  5
5C
100
AcDbEntity
  8
EXT
  6
ByLayer
 62
  256
370
   -1
100
AcDbPolyline
 90
   65
 70
    0
 43
0
 10
60.70212744639826
 20
-28.00000000000003
 10
60.70212744639826
 20
-20.61600000000001
 10
62.70212744639826
 20
-20.61600000000002
 10
62.70212744639826
 20
-10.65699999999982
 10
60.70212744639826
 20
-10.65699999999982
 10
60.70212744639826
 20
-0.7980000000000338
 10
62.70212744639826
 20
-0.7980000000000338
 10
62.70212744639826
 20
9.161000000000087
 10
60.70212744639826
 20
9.161000000000087
 10
62.70212744639826
 20
9.161000000000087
 10
62.70212744639826
 20
-0.7980000000000338
 10
60.70212744639826
 20
-0.7980000000000338
 10
60.70212744639826
 20
-10.65699999999982
 10
62.70212744639826
 20
-10.65699999999982
 10
62.70212744639826
 20
-20.61600000000002
 10
60.70212744639826
 20
-20.61600000000001
 10
60.70212744639824
 20
-28.00000000000003
 10
62.70212744639824
 20
-28.00000000000003
 10
62.70212744639824
 20
-28.00000000000003
 10
62.70212744639818
 20
-30.00000000000003
 10
60.70212744639818
 20
-30.00000000000003
 10
47.70212744639821
 20
-30.00000000000003
 10
45.70212744639821
 20
-30.00000000000003
 10
45.70212744639821
 20
-28.00000000000003
 10
47.70212744639821
 20
-28.00000000000003
 10
47.70212744639821
 20
-20.61600000000001
 10
45.70212744639821
 20
-20.61600000000001
 10
45.70212744639821
 20
-10.65699999999981
 10
47.70212744639821
 20
-10.65699999999982
 10
47.70212744639821
 20
-0.7979999999999201
 10
45.70212744639821
 20
-0.7979999999999166
 10
45.70212744639821
 20
9.161000000000087
 10
47.70212744639821
 20
9.161000000000087
 10
47.70212744639821
 20
19.02000000000007
 10
45.70212744639821
 20
19.02000000000007
 10
45.70212744639821
 20
28.97900000000007
 10
47.70212744639821
 20
28.97900000000007
 10
47.70212744639821
 20
38.83800000000007
 10
45.70212744639821
 20
38.83800000000007
 10
45.70212744639821
 20
48.79700000000016
 10
47.70212744639821
 20
48.79700000000016
 10
47.70212744639821
 20
58.65600000000017
 10
45.70212744639821
 20
58.65600000000017
 10
45.70212744639821
 20
68.61500000000018
 10
47.70212744639821
 20
68.61500000000018
 10
47.70212744639824
 20
76
 10
45.70212744639824
 20
76
 10
45.70212744639824
 20
78
 10
47.70212744639824
 20
78
 10
60.70212744639821
 20
78
 10
62.70212744639821
 20
78
 10
62.70212744639821
 20
76
 10
60.70212744639826
 20
76.00000000000017
 10
60.70212744639826
 20
68.61500000000018
 10
62.70212744639826
 20
68.61500000000018
 10
62.70212744639826
 20
58.65600000000017
 10
60.70212744639826
 20
58.65600000000017
 10
60.70212744639826
 20
48.79700000000016
 10
62.70212744639826
 20
48.79700000000016
 10
60.70212744639826
 20
48.79700000000016
 10
60.70212744639826
 20
58.65600000000017
 10
62.70212744639826
 20
58.65600000000017
 10
62.70212744639826
 20
68.61500000000018
 10
60.70212744639826
 20
68.61500000000018
 10
60.70212744639826
 20
76.00000000000017
  0
LWPOLYLINE
  5
5D
100
AcDbEntity
  8
EXT
  6
ByLayer
 62
  256
370
   -1
100
AcDbPolyline
 90
    6
 70
    0
 43
0
 10
62.70212744639826
 20
41.99492108832586
 10
54.90212744639823
 20
41.99492108832586
 42
0.414213562373095
 10
53.40212744639823
 20
40.49492108832586
 10
53.40212744639823
 20
18.49492108832587
 42
0.414213562373095
 10
54.90212744639823
 20
16.99492108832587
 10
60.70212744639826
 20
16.99492108832587
  0
CIRCLE
  5
5E
100
AcDbEntity
  8
INT
  6
ByLayer
 62
  256
370
   -1
100
AcDbCircle
 10
111.8204441330824
 20
-22.55477841167392
 40
3.5
  0
CIRCLE
  5
5F
100
AcDbEntity
  8
INT
  6
ByLayer
 62
  256
370
   -1
100
AcDbCircle
 10
109.7083614463983
 20
0.5052210883259747
 40
1.5875
  0
CIRCLE
  5
60
100
AcDbEntity
  8
INT
  6
ByLayer
 62
  256
370
   -1
100
AcDbCircle
 10
113.7235614463983
 20
56.50522108832586
 40
1.5875
  0
LWPOLYLINE
  5
61
100
AcDbEntity
  8
INT
  6
ByLayer
 62
  256
370
   -1
100
AcDbPolyline
 90
    4
 70
    1
 43
0
 10
89.17462744639826
 20
-10.65700000000001
 10
89.17462744639826
 20
-20.61600000000002
 10
91.22462744639827
 20
-20.61600000000002
 10
91.22462744639827
 20
-10.65700000000001
  0
LWPOLYLINE
  5
62
100
AcDbEntity
  8
INT
  6
ByLayer
 62
  256
370
   -1
100
AcDbPolyline
 90
    4
 70
    1
 43
0
 10
119.8097614463983
 20
-10.65700000000002
 10
119.8097614463983
 20
-20.61600000000002
 10
121.8597614463983
 20
-20.61600000000002
 10
121.8597614463983
 20
-10.65700000000002
  0
LWPOLYLINE
  5
63
100
AcDbEntity
  8
INT
  6
ByLayer
 62
  256
370
   -1
100
AcDbPolyline
 90
    4
 70
    1
 43
0
 10
119.8097614463983
 20
-0.7980000000000373
 10
121.8597614463983
 20
-0.7980000000000373
 10
121.8597614463983
 20
9.160999999999966
 10
119.8097614463983
 20
9.160999999999966
  0
LWPOLYLINE
  5
64
100
AcDbEntity
  8
INT
  6
ByLayer
 62
  256
370
   -1
100
AcDbPolyline
 90
    4
 70
    1
 43
0
 10
119.8097614463983
 20
19.01999999999997
 10
121.8597614463983
 20
19.01999999999997
 10
121.8597614463983
 20
28.97899999999998
 10
119.8097614463983
 20
28.97899999999998
  0
LWPOLYLINE
  5
65
100
AcDbEntity
  8
INT
  6
ByLayer
 62
  256
370
   -1
100
AcDbPolyline
 90
    4
 70
    1
 43
0
 10
119.8097614463983
 20
38.83799999999996
 10
121.8597614463983
 20
38.83799999999996
 10
121.8597614463983
 20
48.79699999999996
 10
119.8097614463983
 20
48.79699999999996
  0
LWPOLYLINE
  5
66
100
AcDbEntity
  8
INT
  6
ByLayer
 62
  256
370
   -1
100
AcDbPolyline
 90
    4
 70
    1
 43
0
 10
119.8097614463983
 20
68.61499999999995
 10
121.8597614463983
 20
68.61499999999995
 10
121.8597614463983
 20
58.656
 10
119.8097614463983
 20
58.656
  0
LWPOLYLINE
  5
67
100
AcDbEntity
  8
INT
  6
ByLayer
 62
  256
370
   -1
100
AcDbPolyline
 90
    8
 70
    1
 43
0
 10
77.59962744639827
 20
51.98492108832595
 42
0.414213562373095
 10
77.09962744639827
 20
51.48492108832595
 10
77.09962744639827
 20
45.16492108832596
 42
0.414213562373095
 10
77.59962744639827
 20
44.66492108832596
 10
81.37962744639827
 20
44.66492108832596
 42
0.414213562373095
 10
81.87962744639827
 20
45.16492108832596
 10
81.87962744639827
 20
51.48492108832595
 42
0.414213562373095
 10
81.37962744639827
 20
51.98492108832595
  0
LWPOLYLINE
  5
68
100
AcDbEntity
  8
INT
  6
ByLayer
 62
  256
370
   -1
100
AcDbPolyline
 90
    8
 70
    1
 43
0
 10
79.22462744639823
 20
0.004921088325968443
 42
0.414213562373095
 10
79.72462744639823
 20
-0.4950789116740317
 10
86.04462744639824
 20
-0.4950789116740317
 42
0.414213562373095
 10
86.54462744639824
 20
0.004921088325968354
 10
86.54462744639824
 20
3.784921088325966
 42
0.414213562373095
 10
86.04462744639824
 20
4.284921088325966
 10
79.72462744639823
 20
4.284921088325966
 42
0.414213562373095
 10
79.22462744639823
 20
3.784921088325966
  0
LWPOLYLINE
  5
69
100
AcDbEntity
  8
INT
  6
ByLayer
 62
  256
370
   -1
100
AcDbPolyline
 90
    8
 70
    1
 43
0
 10
91.72462744639827
 20
11.38492108832596
 42
0.414213562373095
 10
91.22462744639827
 20
10.88492108832596
 10
91.22462744639827
 20
4.564921088325967
 42
0.414213562373095
 10
91.72462744639827
 20
4.064921088325967
 10
95.50462744639827
 20
4.064921088325967
 42
0.414213562373095
 10
96.00462744639827
 20
4.564921088325967
 10
96.00462744639827
 20
10.88492108832596
 42
0.414213562373095
 10
95.50462744639827
 20
11.38492108832596
  0
LWPOLYLINE
  5
6A
100
AcDbEntity
  8
INT
  6
ByLayer
 62
  256
370
   -1
100
AcDbPolyline
 90
    4
 70
    1
 43
0
 10
91.22462744639827
 20
60.37862108832598
 10
89.17462744639826
 20
60.37862108832598
 10
89.17462744639826
 20
68.61499999999995
 10
91.22462744639827
 20
68.61499999999995
  0
LWPOLYLINE
  5
6B
100
AcDbEntity
  8
EXT
  6
ByLayer
 62
  256
370
   -1
100
AcDbPolyline
 90
   55
 70
    1
 43
0
 10
63.20212744639826
 20
9.161000000000087
 10
65.20212744639826
 20
9.161000000000087
 10
65.20212744639826
 20
-0.7980000000000338
 10
63.20212744639826
 20
-0.7980000000000338
 10
63.20212744639826
 20
-10.65699999999982
 10
65.20212744639826
 20
-10.65699999999982
 10
65.20212744639826
 20
-20.61600000000002
 10
63.20212744639826
 20
-20.61600000000002
 10
63.20212744639824
 20
-28.00000000000003
 10
65.20212744639824
 20
-28.00000000000003
 10
70.07044413308259
 20
-28.00000000000003
 10
70.07044413308259
 20
-30.00000000000003
 10
78.87044413308257
 20
-30.00000000000003
 10
78.87044413308257
 20
-28.00000000000003
 10
87.62044413308257
 20
-28.00000000000003
 10
87.62044413308257
 20
-30.00000000000003
 10
96.42044413308258
 20
-30.00000000000003
 10
96.42044413308258
 20
-28.00000000000003
 10
105.1704441330826
 20
-28.00000000000004
 10
105.1704441330826
 20
-30.00000000000004
 10
113.9704441330826
 20
-30.00000000000004
 10
113.9704441330826
 20
-28.00000000000004
 10
122.7204441330826
 20
-28.00000000000004
 10
122.7204441330826
 20
-30.00000000000004
 10
131.3204441330826
 20
-30.00000000000004
 10
131.3204441330826
 20
78
 10
122.7204441330826
 20
78
 10
122.7204441330825
 20
76
 10
113.9704441330826
 20
76
 10
113.9704441330826
 20
78
 10
105.1704441330826
 20
78
 10
105.1704441330826
 20
76
 10
96.42044413308258
 20
76
 10
96.42044413308258
 20
78
 10
87.62044413308257
 20
78
 10
87.62044413308257
 20
76
 10
78.87044413308257
 20
76
 10
78.87044413308256
 20
78
 10
70.07044413308256
 20
78
 10
70.07044413308256
 20
76
 10
65.20212744639821
 20
76
 10
63.20212744639826
 20
76.00000000000017
 10
63.20212744639826
 20
68.61500000000018
 10
65.20212744639826
 20
68.61500000000018
 10
65.20212744639826
 20
58.65600000000017
 10
63.20212744639826
 20
58.65600000000017
 10
63.20212744639826
 20
48.79700000000016
 10
65.20212744639826
 20
48.79700000000016
 10
65.20212744639826
 20
41.99492108832586
 10
82.45779042066899
 20
39.01015776304667
 42
-0.3648919812460368
 10
83.70212744639826
 20
37.53210619304408
 10
83.70212744639825
 20
21.45773598360778
 42
-0.3648919812460337
 10
82.45779042066899
 20
19.97968441360518
 10
65.20212744639826
 20
16.99492108832587
 10
63.20212744639826
 20
16.99492108832587
  0
CIRCLE
  5
6C
100
AcDbEntity
  8
INT
  6
ByLayer
 62
  256
370
   -1
100
AcDbCircle
 10
140.3204441330826
 20
-24.55477841167392
 40
2.5
  0
LWPOLYLINE
  5
6D
100
AcDbEntity
  8
INT
  6
ByLayer
 62
  256
370
   -1
100
AcDbPolyline
 90
    4
 70
    1
 43
0
 10
139.3204441330826
 20
59.9902220883261
 10
141.3204441330826
 20
59.9902220883261
 10
141.3204441330826
 20
-7.09977891167393
 10
139.3204441330826
 20
-7.09977891167393
  0
LWPOLYLINE
  5
6E
100
AcDbEntity
  8
EXT
  6
ByLayer
 62
  256
370
   -1
100
AcDbPolyline
 90
   45
 70
    1
 43
0
 10
133.8204441330824
 20
66.60499999999996
 10
131.8204441330827
 20
66.60499999999996
 10
131.8204441330827
 20
66.60499999999996
 10
131.8204441330826
 20
56.66599999999999
 10
133.8204441330825
 20
56.66599999999999
 10
133.8204441330825
 20
46.78699999999997
 10
131.8204441330826
 20
46.78699999999997
 10
131.8204441330826
 20
36.84799999999998
 10
133.8204441330826
 20
36.84799999999998
 10
133.8204441330826
 20
26.96899999999996
 10
131.8204441330826
 20
26.96899999999996
 10
131.8204441330826
 20
17.02999999999997
 10
133.8204441330826
 20
17.02999999999997
 10
133.8204441330826
 20
7.150999999999975
 10
131.8204441330826
 20
7.150999999999975
 10
131.8204441330826
 20
-2.788000000000018
 10
133.8204441330825
 20
-2.788000000000018
 10
133.8204441330826
 20
-12.66700000000004
 10
131.8204441330825
 20
-12.66700000000004
 10
131.8204441330827
 20
-22.60600000000003
 10
133.8204441330824
 20
-22.60600000000003
 10
133.8204441330826
 20
-30.00000000000004
 10
146.8204441330826
 20
-30.00000000000004
 10
146.8204441330826
 20
-22.60600000000003
 10
148.8204441330826
 20
-22.60600000000003
 10
148.8204441330826
 20
-12.66700000000004
 10
146.8204441330826
 20
-12.66700000000004
 10
146.8204441330826
 20
-2.788000000000018
 10
148.8204441330826
 20
-2.788000000000018
 10
148.8204441330826
 20
7.150999999999975
 10
146.8204441330826
 20
7.150999999999975
 10
146.8204441330826
 20
17.02999999999997
 10
148.8204441330826
 20
17.02999999999997
 10
148.8204441330826
 20
26.96899999999996
 10
146.8204441330826
 20
26.96899999999996
 10
146.8204441330826
 20
36.84799999999998
 10
148.8204441330826
 20
36.84799999999998
 10
148.8204441330826
 20
46.78699999999997
 10
146.8204441330826
 20
46.78699999999997
 10
146.8204441330826
 20
56.66599999999999
 10
148.8204441330826
 20
56.66599999999999
 10
148.8204441330826
 20
66.60499999999996
 10
146.8204441330826
 20
66.60499999999996
 10
146.8204441330826
 20
74
 10
133.8204441330826
 20
74
  0
LWPOLYLINE
  5
6F
100
AcDbEntity
  8
INT
  6
ByLayer
 62
  256
370
   -1
100
AcDbPolyline
 90
   17
 70
    0
 43
0
 10
62.40900000000002
 20
36.00000000000009
 10
55
 20
35.99999999999999
 10
55
 20
22.99999999999999
 10
62.39400000000001
 20
22.99999999999999
 10
62.39400000000001
 20
21
 10
72.333
 20
21
 10
72.333
 20
22.99999999999999
 10
79.293421088326
 20
22.99999999999999
 10
79.293421088326
 20
28.49999999999999
 10
74.293421088326
 20
28.49999999999999
 10
74.293421088326
 20
30.49999999999999
 10
79.293421088326
 20
30.49999999999999
 10
79.293421088326
 20
36.00000000000006
 10
72.333
 20
35.99999999999999
 10
72.333
 20
38.00000000000006
 10
62.39400000000001
 20
37.99999999999989
 10
62.39400000000001
 20
36.00000000000016
  0
LWPOLYLINE
  5
70
100
AcDbEntity
  8
EXT
  6
ByLayer
 62
  256
370
   -1
100
AcDbPolyline
 90
   32
 70
    1
 43
0
 10
-20.91618924028614
 20
78.50000000000006
 10
-20.91618924028613
 20
95.50000000000006
 10
-16.04787255360178
 20
95.50000000000006
 10
-16.04787255360178
 20
93.50000000000006
 10
-7.247872553601788
 20
93.50000000000006
 10
-7.247872553601788
 20
95.50000000000006
 10
1.502127446398212
 20
95.50000000000006
 10
1.502127446398212
 20
93.50000000000006
 10
10.30212744639822
 20
93.50000000000006
 10
10.30212744639822
 20
95.50000000000006
 10
19.05212744639822
 20
95.50000000000006
 10
19.0521274463982
 20
93.50000000000006
 10
27.85212744639822
 20
93.50000000000006
 10
27.85212744639822
 20
95.50000000000006
 10
36.6021274463982
 20
95.50000000000006
 10
36.60212744639821
 20
93.50000000000006
 10
45.20212744639822
 20
93.50000000000006
 10
45.20212744639822
 20
80.50000000000006
 10
36.60212744639821
 20
80.50000000000006
 10
36.60212744639821
 20
78.50000000000006
 10
27.85212744639822
 20
78.50000000000006
 10
27.85212744639822
 20
80.50000000000006
 10
19.05212744639821
 20
80.50000000000006
 10
19.05212744639821
 20
78.50000000000006
 10
10.30212744639822
 20
78.50000000000006
 10
10.30212744639821
 20
80.50000000000006
 10
1.502127446398227
 20
80.50000000000006
 10
1.502127446398227
 20
78.50000000000006
 10
-7.247872553601773
 20
78.50000000000006
 10
-7.247872553601788
 20
80.50000000000006
 10
-16.04787255360178
 20
80.50000000000006
 10
-16.04787255360178
 20
78.50000000000006
  0
LWPOLYLINE
  5
71
100
AcDbEntity
  8
EXT
  6
ByLayer
 62
  256
370
   -1
100
AcDbPolyline
 90
   33
 70
    0
 43
0
 10
59.32044413308256
 20
93.50000000000006
 10
50.57044413308256
 20
93.50000000000006
 10
50.57044413308256
 20
95.50000000000006
 10
45.70212744639821
 20
95.50000000000006
 10
45.70212744639821
 20
78.50000000000006
 10
50.57044413308256
 20
78.50000000000006
 10
50.57044413308256
 20
80.50000000000006
 10
59.37044413308251
 20
80.50000000000006
 10
59.37044413308257
 20
78.50000000000006
 10
68.12044413308251
 20
78.50000000000006
 10
68.12044413308251
 20
80.50000000000006
 10
76.92044413308253
 20
80.50000000000006
 10
76.92044413308253
 20
78.50000000000006
 10
85.67044413308253
 20
78.50000000000006
 10
85.67044413308253
 20
80.50000000000006
 10
94.47044413308254
 20
80.50000000000006
 10
94.47044413308254
 20
78.50000000000006
 10
103.2204441330825
 20
78.50000000000006
 10
103.2204441330825
 20
80.50000000000006
 10
111.8204441330826
 20
80.50000000000006
 10
111.8204441330826
 20
93.50000000000006
 10
100.2204441330825
 20
93.50000000000006
 10
100.2204441330825
 20
95.50000000000006
 10
94.47044413308254
 20
95.50000000000006
 10
94.47044413308254
 20
93.50000000000006
 10
85.67044413308258
 20
93.50000000000006
 10
85.67044413308258
 20
95.50000000000006
 10
76.92044413308258
 20
95.50000000000006
 10
76.92044413308258
 20
93.50000000000006
 10
68.12044413308257
 20
93.50000000000006
 10
68.12044413308257
 20
95.50000000000006
 10
59.37044413308257
 20
95.50000000000006
 10
59.37044413308257
 20
93.50000000000006
  0
LWPOLYLINE
  5
72
100
AcDbEntity
  8
EXT
  6
ByLayer
 62
  256
370
   -1
100
AcDbPolyline
 90
   15
 70
    1
 43
0
 10
127.9418230447566
 20
86.00000000000006
 10
122.9418230447566
 20
86.00000000000006
 10
122.9418230447566
 20
88.00000000000006
 10
127.9418230447566
 20
88.00000000000006
 10
135.3618230447566
 20
88.00000000000006
 10
135.3618230447566
 20
93.50000000000006
 10
127.9418230447566
 20
93.50000000000006
 10
127.9418230447566
 20
95.50000000000006
 10
119.7154441330826
 20
95.50000000000006
 10
119.7154441330826
 20
93.50000000000006
 10
112.3204441330826
 20
93.50000000000006
 10
112.3204441330826
 20
80.50000000000006
 10
119.7154441330826
 20
80.49999999999989
 10
119.7154441330826
 20
78.50000000000006
 10
127.9418230447566
 20
78.50000000000006
  0
ENDSEC
  0
SECTION
  2
OBJECTS
  0
DICTIONARY
  5
C
330
0
100
AcDbDictionary
281
    1
  3
ACAD_GROUP
350
D
  0
DICTIONARY
  5
D
330
C
100
AcDbDictionary
281
    1
  0
PLOTSETTINGS
  5
73
100
AcDbPlotSettings
  6
1x1
 40
0
 41
0
 42
0
 43
0
  0
ENDSEC
  0
EOF
